<svg width="24" height="24" viewBox="0 0 24 24" fill="none" xmlns="http://www.w3.org/2000/svg">
<path fill-rule="evenodd" clip-rule="evenodd" d="M12 1C8.90884 1 6.40295 3.46243 6.40295 6.5C6.40295 9.53757 8.90884 12 12 12C15.0912 12 17.597 9.53757 17.597 6.5C17.597 3.46243 15.0912 1 12 1Z" fill="white"/>
<path fill-rule="evenodd" clip-rule="evenodd" d="M8.64177 13.1C6.78048 13.1 4.99052 13.9344 3.94154 15.1905C3.40916 15.828 3.03489 16.6168 3.0023 17.4911C2.96902 18.3839 3.29699 19.2554 3.97337 20.0158C5.62177 21.8688 8.25364 23 12 23C15.7464 23 18.3782 21.8688 20.0266 20.0158C20.703 19.2554 21.031 18.3839 20.9977 17.4911C20.9651 16.6168 20.5908 15.828 20.0585 15.1905C19.0095 13.9344 17.2195 13.1 15.3582 13.1H8.64177Z" fill="white"/>
</svg>
