<svg width="26" height="26" viewBox="0 0 22 22" fill="none" xmlns="http://www.w3.org/2000/svg">
<path fill-rule="evenodd" clip-rule="evenodd" d="M7.93023 22H14.0698C19.626 22 22 19.626 22 14.0698V7.93023C22 2.37395 19.626 0 14.0698 0H7.93023C2.37395 0 0 2.37395 0 7.93023V14.0698C0 19.626 2.37395 22 7.93023 22ZM9.00462 14.4382C9.14788 14.5815 9.3423 14.6633 9.54695 14.6633C9.7516 14.6633 9.94602 14.5815 10.0893 14.4382L15.8911 8.63634C16.1879 8.33959 16.1879 7.84843 15.8911 7.55168C15.5944 7.25494 15.1032 7.25494 14.8065 7.55168L9.54695 12.8112L7.19346 10.4577C6.89671 10.161 6.40555 10.161 6.10881 10.4577C5.81206 10.7545 5.81206 11.2456 6.10881 11.5424L9.00462 14.4382Z" fill="white"/>
</svg>
