<svg width="20" height="20" viewBox="0 0 20 20" fill="none" xmlns="http://www.w3.org/2000/svg">
<path opacity="0.4" d="M10.0001 18.25C14.6025 18.25 18.3334 14.5191 18.3334 9.91671C18.3334 5.31433 14.6025 1.58337 10.0001 1.58337C5.39771 1.58337 1.66675 5.31433 1.66675 9.91671C1.66675 14.5191 5.39771 18.25 10.0001 18.25Z" fill="#148EFF"/>
<path d="M11.8832 10L10.6249 9.55833V6.73333H10.9249C11.5999 6.73333 12.1499 7.325 12.1499 8.05C12.1499 8.39167 12.4332 8.675 12.7749 8.675C13.1166 8.675 13.3999 8.39167 13.3999 8.05C13.3999 6.63333 12.2916 5.48333 10.9249 5.48333H10.6249V5C10.6249 4.65833 10.3416 4.375 9.99989 4.375C9.65822 4.375 9.37489 4.65833 9.37489 5V5.48333H8.83322C7.59989 5.48333 6.59155 6.525 6.59155 7.8C6.59155 9.29167 7.45822 9.76667 8.11655 10L9.37489 10.4417V13.2583H9.07489C8.39989 13.2583 7.84989 12.6667 7.84989 11.9417C7.84989 11.6 7.56655 11.3167 7.22489 11.3167C6.88322 11.3167 6.59989 11.6 6.59989 11.9417C6.59989 13.3583 7.70822 14.5083 9.07489 14.5083H9.37489V15C9.37489 15.3417 9.65822 15.625 9.99989 15.625C10.3416 15.625 10.6249 15.3417 10.6249 15V14.5167H11.1666C12.3999 14.5167 13.4082 13.475 13.4082 12.2C13.3999 10.7 12.5332 10.225 11.8832 10ZM8.53322 8.825C8.10822 8.675 7.84989 8.53333 7.84989 7.80833C7.84989 7.21667 8.29155 6.74167 8.84155 6.74167H9.38322V9.125L8.53322 8.825ZM11.1666 13.2667H10.6249V10.8833L11.4666 11.175C11.8916 11.325 12.1499 11.4667 12.1499 12.1917C12.1499 12.7833 11.7082 13.2667 11.1666 13.2667Z" fill="#148EFF"/>
</svg>
