<svg width="20" height="20" viewBox="0 0 20 20" fill="none" xmlns="http://www.w3.org/2000/svg">
<path opacity="0.4" d="M17.0584 8.3313V14.998C17.0584 17.498 16.2251 18.3313 13.7251 18.3313H7.05843C4.55843 18.3313 3.7251 17.498 3.7251 14.998V8.3313H17.0584Z" fill="#0075FF"/>
<path d="M18.3333 5.83122V6.66455C18.3333 7.58122 17.8917 8.33122 16.6667 8.33122H4.16667C2.89167 8.33122 2.5 7.58122 2.5 6.66455V5.83122C2.5 4.91455 2.89167 4.16455 4.16667 4.16455H16.6667C17.8917 4.16455 18.3333 4.91455 18.3333 5.83122Z" fill="#0075FF"/>
<path opacity="0.4" d="M10.1167 4.16454H5.51673C5.2334 3.85621 5.24173 3.38121 5.54173 3.08121L6.72506 1.89788C7.0334 1.58954 7.54173 1.58954 7.85006 1.89788L10.1167 4.16454Z" fill="#0075FF"/>
<path opacity="0.4" d="M15.3085 4.16454H10.7085L12.9752 1.89788C13.2835 1.58954 13.7918 1.58954 14.1002 1.89788L15.2835 3.08121C15.5835 3.38121 15.5918 3.85621 15.3085 4.16454Z" fill="#0075FF"/>
<path opacity="0.6" d="M7.8667 8.3313V12.6146C7.8667 13.2813 8.60003 13.673 9.15837 13.3146L9.9417 12.798C10.225 12.6146 10.5834 12.6146 10.8584 12.798L11.6 13.298C12.15 13.6646 12.8917 13.273 12.8917 12.6063V8.3313H7.8667Z" fill="#0075FF"/>
</svg>
