<svg width="20" height="20" viewBox="0 0 20 20" fill="none" xmlns="http://www.w3.org/2000/svg">
<path d="M8.33341 7.56671V5.20837C7.99175 5.20837 7.70841 4.92504 7.70841 4.58337V2.70837H5.83341C2.15841 2.70837 1.04175 3.82504 1.04175 7.50004V7.91671C1.04175 8.25837 1.32508 8.54171 1.66675 8.54171C2.46675 8.54171 3.12508 9.20004 3.12508 10C3.12508 10.8 2.46675 11.4584 1.66675 11.4584C1.32508 11.4584 1.04175 11.7417 1.04175 12.0834V12.5C1.04175 16.175 2.15841 17.2917 5.83341 17.2917H7.70841V15.4167C7.70841 15.075 7.99175 14.7917 8.33341 14.7917V12.4334C7.99175 12.4334 7.70841 12.15 7.70841 11.8084V8.19171C7.70841 7.85004 7.99175 7.56671 8.33341 7.56671Z" fill="#148EFF"/>
<path opacity="0.4" d="M16.8749 10.4167C16.8749 11.2167 17.5333 11.875 18.3333 11.875C18.6749 11.875 18.9583 12.1584 18.9583 12.5C18.9583 16.175 17.8416 17.2917 14.1666 17.2917H8.95825V15.4167C8.95825 15.075 8.67492 14.7917 8.33325 14.7917V12.4334C8.67492 12.4334 8.95825 12.15 8.95825 11.8084V8.19171C8.95825 7.85004 8.67492 7.56671 8.33325 7.56671V5.20837C8.67492 5.20837 8.95825 4.92504 8.95825 4.58337V2.70837H14.1666C17.8416 2.70837 18.9583 3.82504 18.9583 7.50004V8.33337C18.9583 8.67504 18.6749 8.95837 18.3333 8.95837C17.5333 8.95837 16.8749 9.61671 16.8749 10.4167Z" fill="#148EFF"/>
</svg>
